<svg width="255" height="255" viewBox="0 0 255 255" fill="none" xmlns="http://www.w3.org/2000/svg">
<path d="M68.7629 126.542V231.993C68.7629 235.693 70.2329 239.242 72.8495 241.859C75.4662 244.475 79.0151 245.945 82.7156 245.945H164.687C168.388 245.945 171.937 244.475 174.554 241.859C177.17 239.242 178.64 235.693 178.64 231.993V22.7375C178.64 19.0372 177.169 15.4886 174.553 12.872C171.936 10.2555 168.388 8.78532 164.687 8.78476H82.7156C79.0153 8.78532 75.4667 10.2555 72.8501 12.872C70.2336 15.4886 68.7634 19.0372 68.7629 22.7375V126.542Z" fill="white"/>
<path d="M99.6413 3.27674H147.764C149.609 3.27674 151.104 4.77233 151.104 6.61724V13.6191C151.104 15.464 149.609 16.9596 147.764 16.9596H99.6413C97.7963 16.9596 96.3008 15.464 96.3008 13.6191V6.61724C96.3008 4.77233 97.7963 3.27674 99.6413 3.27674Z" fill="#F3F3F3"/>
<path d="M82.2949 1.275H165.113C170.468 1.27838 175.602 3.40811 179.388 7.19602C183.174 10.9839 185.3 16.12 185.3 21.4753V233.244C185.3 238.599 183.174 243.736 179.388 247.523C175.602 251.311 170.468 253.441 165.113 253.445H82.2949C76.9375 253.445 71.7994 251.316 68.0112 247.528C64.2229 243.74 62.0946 238.602 62.0946 233.244V21.4753C62.0946 16.1178 64.2229 10.9798 68.0112 7.19152C71.7994 3.40324 76.9375 1.275 82.2949 1.275V1.275ZM68.7629 126.542V231.993C68.7629 235.693 70.2329 239.242 72.8496 241.859C75.4662 244.475 79.0151 245.945 82.7156 245.945H164.688C168.388 245.945 171.937 244.475 174.554 241.859C177.17 239.242 178.64 235.693 178.64 231.993V22.7375C178.64 19.0372 177.17 15.4886 174.553 12.872C171.936 10.2555 168.388 8.78531 164.688 8.78475H82.7156C79.0153 8.78531 75.4667 10.2555 72.8502 12.872C70.2336 15.4886 68.7635 19.0372 68.7629 22.7375V126.542Z" fill="#F3F3F3"/>
<path d="M78.659 31.7284H168.744V75.8434H78.659V31.7284Z" fill="#F3F3F3"/>
<path d="M43.52 111.692H163.704V115.842H43.52V111.692Z" fill="#F3F3F3"/>
<path d="M43.52 122.606H163.704V126.756H43.52V122.606Z" fill="#F3F3F3"/>
<path d="M43.52 133.518H163.704V137.668H43.52V133.518Z" fill="#F3F3F3"/>
<path d="M43.52 144.432H163.704V148.582H43.52V144.432Z" fill="#F3F3F3"/>
<path d="M43.52 155.346H163.704V159.496H43.52V155.346Z" fill="#F3F3F3"/>
<path d="M43.52 166.26H163.704V170.41H43.52V166.26Z" fill="#F3F3F3"/>
<path d="M43.52 177.174H163.704V181.324H43.52V177.174Z" fill="#F3F3F3"/>
<path d="M43.52 188.088H163.704V192.238H43.52V188.088Z" fill="#F3F3F3"/>
<path d="M56.4783 207.017H140.093V211.168H56.4783V207.017Z" fill="#F3F3F3"/>
<path d="M47.9166 215.743H140.093V219.893H47.9166V215.743Z" fill="#F3F3F3"/>
<path d="M155.699 100.498H169.269V104.807H155.699V100.498Z" fill="#F3F3F3"/>
<path d="M138.775 100.498H152.346V104.807H138.775V100.498Z" fill="#F3F3F3"/>
<path d="M120.715 100.498H134.285V104.807H120.715V100.498Z" fill="#F3F3F3"/>
<path d="M153.92 221.903C148.938 221.903 144.899 217.864 144.899 212.882C144.899 207.901 148.938 203.862 153.92 203.862C158.902 203.862 162.941 207.901 162.941 212.882C162.941 217.864 158.902 221.903 153.92 221.903Z" fill="#F3F3F3"/>
<path d="M51.9477 83.8568H163.704V92.7159H51.9477V83.8568Z" fill="#E2E2E2"/>
<path d="M181.966 226.534L186.691 232.844L181.061 237.06L176.336 230.75L181.966 226.534Z" fill="#DE8E68"/>
<path d="M191.475 239.932H200.058V245.522H191.475V239.932Z" fill="#DE8E68"/>
<path d="M217.698 133.75C217.698 133.75 235.04 192.973 235.04 194.174C235.04 195.375 186.637 234.929 185.74 234.929C184.843 234.929 181.118 227.704 181.118 226.449C181.118 225.193 192.64 215.688 192.64 215.688L217.698 133.75Z" fill="#56CAD8"/>
<path d="M191.129 240.055L185.746 132.779C188.275 134.593 201.297 138.303 217.698 133.75C216.559 143.168 200.485 240.637 200.485 240.637H191.182L191.129 240.055Z" fill="#74D5DE"/>
<path d="M218.62 101.819C220.79 100.632 243.827 85.3931 247.596 85.3931C251.366 85.3931 251.056 87.6159 251.056 88.2874C251.056 88.9589 250.593 93.4001 240.055 96.1371C239.126 97.274 223.735 112.871 219.139 114.731C219.088 109.824 218.62 101.819 218.62 101.819Z" fill="#DE8E68"/>
<path d="M200.713 55.0609C229.313 55.0609 219.268 131.55 217.698 133.75C216.127 135.949 186.949 137.451 185.155 131.865C183.968 128.167 177.862 55.0609 200.713 55.0609Z" fill="#FED385"/>
<path d="M242.014 92.7138L254.549 84.541L247.696 80.7521L235.469 88.4468L242.014 92.7138Z" fill="#333333"/>
<path d="M198.424 87.04C198.477 89.165 196.658 103.579 194.042 110.506C195.033 115.606 200.475 144.152 200.475 144.152L196.65 149.099C196.65 149.099 182.654 119.378 181.947 114.731C181.239 110.083 182.937 87.04 183.222 85.9095C183.506 84.779 198.424 87.04 198.424 87.04Z" fill="#DE8E68"/>
<path d="M191.565 62.3326C183.028 62.1456 180.627 84.83 182.066 86.8445C183.504 88.859 198.711 90.3954 200.439 88.4765C202.166 86.5576 200.6 62.5302 191.565 62.3326Z" fill="#FED892"/>
<path d="M198.082 43.8897H207.587V58.8242C207.587 60.7367 198.082 60.6241 198.082 58.8242V43.8897Z" fill="#D37C59"/>
<path d="M196.131 37.427C195.647 28.9369 199.259 21.8262 204.197 21.5448C209.136 21.2635 213.532 27.9181 214.015 36.4083C214.499 44.8985 210.887 52.0092 205.949 52.2905C201.01 52.5718 196.614 45.9172 196.131 37.427Z" fill="#DE8E68"/>
<path d="M223.762 32.3C223.762 30.8125 222.912 29.1125 222.912 27.4125C222.912 25.925 223.55 24.225 223.55 22.1C223.55 18.4875 219.937 16.7875 218.025 16.7875C214.412 16.7875 213.562 19.3375 207.825 19.3375C204.425 19.3375 202.937 18.4875 201.025 18.4875C195.075 18.4875 194.225 25.925 194.225 26.775C194.225 30.3875 189.337 30.6 189.337 34.425C189.337 38.0375 193.162 42.2875 196.137 42.2875C199.112 42.2875 201.875 39.525 201.875 38.675C201.875 36.7625 201.45 36.3375 201.45 35.0625C201.45 30.6 211.174 29.5375 212.661 29.5375C213.412 31.8059 213.858 34.164 213.987 36.55C214.412 36.7625 215.9 37.1875 217.387 37.1875C218.45 37.1875 223.762 35.9125 223.762 32.3Z" fill="#FD8369"/>
<path d="M197.731 45.05C196.499 45.05 195.5 44.051 195.5 42.8187C195.5 41.5865 196.499 40.5875 197.731 40.5875C198.964 40.5875 199.962 41.5865 199.962 42.8187C199.962 44.051 198.964 45.05 197.731 45.05Z" fill="#DE8E68"/>
<path d="M191.299 244.889H200.422L215.08 250.68V252.884H191.299V244.889Z" fill="black"/>
<path d="M176.709 230.284L181.732 236.991L185.547 250.956L183.927 252.17L170.833 234.685L176.709 230.284Z" fill="black"/>
<path d="M101.541 150.046C102.89 150.046 103.524 153.499 103.524 156.358C103.509 164.982 102.716 173.588 101.154 182.07C100.863 182.07 100.568 182.051 100.268 182.051C96.2051 182.051 92.9114 183.192 92.9114 184.601C92.9114 186.01 96.1371 187.125 100.136 187.151C100.075 187.431 100.015 187.71 99.9515 187.988C96.0351 188.046 92.9071 189.163 92.9071 190.538C92.9071 191.764 95.4082 192.789 98.7381 193.031C91.545 220.907 77.792 242.911 68.5164 253.168H56.474V243.015C56.4782 225.312 86.9635 150.046 101.541 150.046Z" fill="#56CAD8"/>
<path d="M9.18848 179.633C17.1551 179.633 18.003 188.179 23.3941 188.179C25.4745 188.179 26.0503 185.984 26.0503 183.906C26.0503 180.364 20.3277 167.214 19.8475 158.769C20.4083 158.872 20.9773 158.923 21.5475 158.922C25.3172 158.922 28.3751 156.731 28.3751 154.035C28.3751 151.338 25.3172 149.147 21.5475 149.147C21.3775 149.147 21.2096 149.147 21.0439 149.162C22.848 142.942 27.0682 136.451 36.3439 136.451C51.5886 136.451 55.7472 163.476 58.0571 174.448C59.4872 181.248 74.7022 205.632 74.7022 223.68C74.7022 239.587 69.8147 253.155 68.5397 253.155H53.2121C53.2121 248.268 43.707 239.239 41.446 236.767C25.8017 219.668 0.00849084 211.89 0.00849084 191.887C-9.15538e-06 187.487 1.11561 179.633 9.18848 179.633Z" fill="#74D5DE"/>
</svg>
